<svg width="46" height="46" viewBox="0 0 46 46" fill="none" xmlns="http://www.w3.org/2000/svg">
<path fill-rule="evenodd" clip-rule="evenodd" d="M18.3334 20.6247C19.549 20.6247 20.7148 20.1418 21.5743 19.2822C22.4338 18.4227 22.9167 17.2569 22.9167 16.0413C22.9167 14.8258 22.4338 13.66 21.5743 12.8004C20.7148 11.9409 19.549 11.458 18.3334 11.458C17.1178 11.458 15.952 11.9409 15.0925 12.8004C14.2329 13.66 13.7501 14.8258 13.7501 16.0413C13.7501 17.2569 14.2329 18.4227 15.0925 19.2822C15.952 20.1418 17.1178 20.6247 18.3334 20.6247Z" fill="#A4A4A4"/>
<path d="M15.3473 23.1056C15.5605 22.8183 15.838 22.585 16.1575 22.4242C16.4771 22.2634 16.8298 22.1797 17.1876 22.1797C17.5453 22.1797 17.898 22.2634 18.2176 22.4242C18.5371 22.585 18.8146 22.8183 19.0278 23.1056L23.4048 28.9997C23.658 29.3409 23.8114 29.7456 23.8479 30.1689C23.8843 30.5921 23.8024 31.0172 23.6113 31.3966C23.4202 31.776 23.1274 32.0948 22.7656 32.3174C22.4037 32.54 21.9872 32.6577 21.5623 32.6572H12.8128C12.3881 32.6572 11.9719 32.5393 11.6104 32.3165C11.2489 32.0937 10.9564 31.7749 10.7656 31.3956C10.5747 31.0162 10.493 30.5914 10.5296 30.1683C10.5661 29.7453 10.7195 29.3407 10.9726 28.9997L15.3473 23.1056Z" fill="#A4A4A4"/>
<path fill-rule="evenodd" clip-rule="evenodd" d="M17.1876 26.3941L15.0884 29.2197H19.2868L17.1876 26.3941ZM19.0278 23.1056C18.8146 22.8183 18.5371 22.585 18.2176 22.4242C17.898 22.2634 17.5453 22.1797 17.1876 22.1797C16.8299 22.1797 16.4771 22.2634 16.1576 22.4242C15.838 22.585 15.5606 22.8183 15.3474 23.1056L10.9703 28.9997C10.7171 29.3409 10.5637 29.7456 10.5273 30.1689C10.4908 30.5921 10.5727 31.0172 10.7638 31.3966C10.9549 31.776 11.2478 32.0948 11.6096 32.3174C11.9714 32.54 12.388 32.6577 12.8128 32.6572H21.5624C21.987 32.6572 22.4033 32.5393 22.7648 32.3165C23.1262 32.0937 23.4187 31.7749 23.6096 31.3956C23.8004 31.0162 23.8821 30.5914 23.8456 30.1683C23.809 29.7453 23.6557 29.3407 23.4026 28.9997L19.0255 23.1056H19.0278Z" fill="#A4A4A4"/>
<path d="M24.0488 20.9068C24.264 20.6584 24.53 20.4591 24.8289 20.3225C25.1279 20.1859 25.4527 20.1152 25.7813 20.1152C26.11 20.1152 26.4348 20.1859 26.7337 20.3225C27.0327 20.4591 27.2987 20.6584 27.5138 20.9068L34.4049 28.8635C34.6927 29.1956 34.879 29.6034 34.9416 30.0383C35.0041 30.4733 34.9403 30.917 34.7577 31.3167C34.5751 31.7164 34.2815 32.0552 33.9118 32.2927C33.542 32.5302 33.1118 32.6564 32.6724 32.6562H18.8903C18.4509 32.6564 18.0207 32.5302 17.6509 32.2927C17.2812 32.0552 16.9875 31.7164 16.805 31.3167C16.6224 30.917 16.5586 30.4733 16.6211 30.0383C16.6837 29.6034 16.87 29.1956 17.1578 28.8635L24.0488 20.9068Z" fill="#A4A4A4"/>
<path fill-rule="evenodd" clip-rule="evenodd" d="M25.7813 24.1564L21.3974 29.2187H30.1653L25.7813 24.1564ZM27.5138 20.9068C27.2987 20.6584 27.0327 20.4591 26.7337 20.3225C26.4348 20.1859 26.11 20.1152 25.7813 20.1152C25.4527 20.1152 25.1279 20.1859 24.8289 20.3225C24.53 20.4591 24.264 20.6584 24.0488 20.9068L17.1578 28.8635C16.87 29.1956 16.6837 29.6034 16.6211 30.0383C16.5586 30.4733 16.6224 30.917 16.805 31.3167C16.9875 31.7164 17.2812 32.0552 17.6509 32.2927C18.0207 32.5302 18.4509 32.6564 18.8903 32.6562H32.6724C33.1118 32.6564 33.542 32.5302 33.9118 32.2927C34.2815 32.0552 34.5751 31.7164 34.7577 31.3167C34.9403 30.917 35.0041 30.4733 34.9416 30.0383C34.879 29.6034 34.6927 29.1956 34.4049 28.8635L27.5138 20.9068Z" fill="#A4A4A4"/>
<path fill-rule="evenodd" clip-rule="evenodd" d="M8.02089 8.02181V37.8135H37.8126V8.02181H8.02089ZM6.87506 3.43848C5.96338 3.43848 5.08904 3.80064 4.44438 4.4453C3.79973 5.08995 3.43756 5.96429 3.43756 6.87598V38.9593C3.43756 39.871 3.79973 40.7453 4.44438 41.39C5.08904 42.0346 5.96338 42.3968 6.87506 42.3968H38.9584C39.8701 42.3968 40.7444 42.0346 41.3891 41.39C42.0337 40.7453 42.3959 39.871 42.3959 38.9593V6.87598C42.3959 5.96429 42.0337 5.08995 41.3891 4.4453C40.7444 3.80064 39.8701 3.43848 38.9584 3.43848H6.87506Z" fill="#A4A4A4"/>
</svg>
